<svg width="26" height="30" viewBox="0 0 26 30" fill="none" xmlns="http://www.w3.org/2000/svg">
<path d="M25.2399 23.379C24.7863 24.4272 24.2493 25.3918 23.6269 26.279C22.7789 27.4882 22.0845 28.3251 21.5493 28.7901C20.7197 29.553 19.8308 29.9436 18.879 29.9659C18.1957 29.9659 17.3717 29.7715 16.4124 29.3771C15.4501 28.9844 14.5656 28.7901 13.757 28.7901C12.9089 28.7901 11.9993 28.9844 11.0263 29.3771C10.0519 29.7715 9.26693 29.977 8.66676 29.9975C7.75402 30.0361 6.84424 29.6343 5.93611 28.7901C5.3565 28.2844 4.63154 27.4177 3.76303 26.1901C2.83121 24.879 2.06514 23.3587 1.46497 21.6254C0.822212 19.7532 0.5 17.9403 0.5 16.1852C0.5 14.1747 0.934434 12.4407 1.80459 10.9876C2.48846 9.82042 3.39824 8.8997 4.53691 8.22382C5.67558 7.54791 6.9059 7.20346 8.23086 7.18142C8.95584 7.18142 9.90653 7.40569 11.088 7.84642C12.2661 8.28861 13.0225 8.51287 13.3542 8.51287C13.6021 8.51287 14.4425 8.25065 15.8671 7.7279C17.2143 7.24311 18.3513 7.04236 19.2827 7.12143C21.8067 7.32513 23.703 8.32009 24.9639 10.1126C22.7067 11.4804 21.59 13.396 21.6123 15.8535C21.6326 17.7677 22.3271 19.3607 23.6919 20.6254C24.3102 21.2125 25.0011 21.6661 25.7695 21.9884C25.603 22.4717 25.4269 22.9346 25.2399 23.379ZM19.4512 0.600169C19.4512 2.10051 18.9031 3.50137 17.8105 4.798C16.4921 6.33942 14.8973 7.23014 13.1679 7.08959C13.1459 6.9096 13.1331 6.72015 13.1331 6.52108C13.1331 5.08077 13.7601 3.53933 14.8736 2.279C15.4295 1.64087 16.1365 1.11028 16.9939 0.687018C17.8494 0.270068 18.6587 0.0394862 19.4197 0C19.442 0.200572 19.4512 0.401156 19.4512 0.600149V0.600169Z" fill="white"/>
</svg>
