<svg width="20" height="18" viewBox="0 0 20 18" fill="none" xmlns="http://www.w3.org/2000/svg">
<path d="M15.561 3.10417L14.3303 1.25998C14.0731 0.872138 13.7242 0.55408 13.3148 0.334236C12.9054 0.114393 12.448 -0.000381756 11.9836 9.53958e-07H8.02565C7.56122 -0.000381756 7.10391 0.114393 6.69446 0.334236C6.28502 0.55408 5.93617 0.872138 5.67899 1.25998L4.44821 3.10417C3.2346 3.21181 2.10509 3.77103 1.28189 4.67176C0.458698 5.5725 0.00141087 6.74961 0 7.97143V13.1143C0.00162839 14.4096 0.515437 15.6512 1.42872 16.5671C2.34201 17.483 3.58021 17.9984 4.8718 18H15.1282C16.4198 17.9984 17.658 17.483 18.5713 16.5671C19.4846 15.6512 19.9984 14.4096 20 13.1143V7.97143C19.9981 6.75127 19.5419 5.57577 18.7207 4.67541C17.8996 3.77504 16.7727 3.21468 15.561 3.10417ZM18.4708 13.1153C18.4697 14.0015 18.1182 14.8511 17.4933 15.4778C16.8684 16.1045 16.0212 16.4571 15.1374 16.4581H4.88103C3.99731 16.4571 3.15008 16.1045 2.5252 15.4778C1.90031 14.8511 1.54878 14.0015 1.5477 13.1153V7.97243C1.54878 7.08619 1.90031 6.23661 2.5252 5.60993C3.15008 4.98326 3.99731 4.63067 4.88103 4.62958C5.00768 4.62966 5.13239 4.59836 5.24405 4.53842C5.35571 4.47848 5.45085 4.39178 5.52102 4.28605L6.96308 2.11678C7.07984 1.94035 7.23837 1.79564 7.4245 1.69566C7.61064 1.59569 7.8186 1.54355 8.02975 1.54386H11.9877C12.1988 1.54355 12.4068 1.59569 12.5929 1.69566C12.7791 1.79564 12.9376 1.94035 13.0544 2.11678L14.4964 4.28605C14.5667 4.39165 14.6619 4.47825 14.7735 4.53817C14.8851 4.59809 15.0098 4.62948 15.1364 4.62958C16.0201 4.63067 16.8674 4.98326 17.4922 5.60993C18.1171 6.23661 18.4687 7.08619 18.4697 7.97243V13.1153H18.4708ZM10.0092 6.17243C9.24854 6.17243 8.50494 6.39862 7.87244 6.82245C7.23994 7.24628 6.74697 7.84872 6.45586 8.55352C6.16475 9.25832 6.08857 10.0338 6.23698 10.782C6.38538 11.5303 6.75171 12.2175 7.2896 12.7569C7.8275 13.2964 8.5128 13.6638 9.25888 13.8126C10.005 13.9615 10.7783 13.8851 11.4811 13.5932C12.1839 13.3012 12.7846 12.8068 13.2072 12.1725C13.6298 11.5382 13.8554 10.7924 13.8554 10.0296C13.8543 9.00693 13.4487 8.02645 12.7277 7.30334C12.0066 6.58022 11.029 6.17352 10.0092 6.17243ZM10.0092 12.3439C9.55282 12.3439 9.10665 12.2082 8.72715 11.9539C8.34765 11.6996 8.05186 11.3381 7.8772 10.9153C7.70253 10.4924 7.65685 10.027 7.74589 9.57807C7.83494 9.12914 8.0547 8.71684 8.37744 8.39318C8.70017 8.06952 9.11137 7.84904 9.55901 7.75974C10.0067 7.67044 10.4707 7.71629 10.8923 7.89145C11.314 8.06661 11.6745 8.36328 11.928 8.74386C12.1816 9.12444 12.3169 9.57185 12.3169 10.0296C12.3164 10.6432 12.0731 11.2316 11.6404 11.6655C11.2077 12.0994 10.6211 12.3433 10.0092 12.3439ZM17.1887 6.94386C17.1887 7.14729 17.1286 7.34613 17.0159 7.51528C16.9032 7.68443 16.743 7.81624 16.5556 7.89409C16.3682 7.97194 16.1619 7.99241 15.963 7.95272C15.764 7.91303 15.5813 7.81507 15.4379 7.67122C15.2944 7.52737 15.1967 7.34403 15.1572 7.1445C15.1176 6.94498 15.1379 6.73819 15.2155 6.55024C15.2931 6.36229 15.4246 6.20171 15.5933 6.08869C15.7619 5.97567 15.9602 5.91529 16.1631 5.91529C16.4351 5.91529 16.696 6.02361 16.8883 6.21651C17.0806 6.4094 17.1887 6.67107 17.1887 6.94386Z" fill="#AA73F0"/>
</svg>
