<svg width="20" height="20" viewBox="0 0 20 20" fill="none" xmlns="http://www.w3.org/2000/svg">
<path d="M12.2897 12.3124C11.7149 12.8698 10.9562 13.1608 10.1804 13.1214C9.40456 13.0819 8.67521 12.7152 8.15275 12.102C7.63029 11.4888 7.35752 10.6792 7.39443 9.85138C7.43133 9.02356 7.7749 8.24528 8.34956 7.68774" stroke="#6C6D7A" stroke-linecap="round" stroke-linejoin="round"/>
<path d="M6.3653 5.35889C3.38031 6.97182 2.11914 10 2.11914 10C2.11914 10 4.46207 15.6244 10.3194 15.6244C11.6918 15.6361 13.047 15.2988 14.2729 14.6405" stroke="#6C6D7A" stroke-linecap="round" stroke-linejoin="round"/>
<path d="M16.2214 13.211C17.8177 11.6855 18.5197 10.0001 18.5197 10.0001C18.5197 10.0001 16.1768 4.37452 10.3195 4.37452C9.81216 4.37364 9.30566 4.41765 8.80518 4.5061" stroke="#6C6D7A" stroke-linecap="round" stroke-linejoin="round"/>
<path d="M10.8706 6.93042C11.4931 7.05796 12.06 7.39742 12.4864 7.89787C12.9127 8.39832 13.1755 9.03279 13.2353 9.7061" stroke="#6C6D7A" stroke-linecap="round" stroke-linejoin="round"/>
</svg>
