<svg width="31" height="30" viewBox="0 0 31 30" fill="none" xmlns="http://www.w3.org/2000/svg">
<path d="M7.14863 18.129L6.10437 22.0273L2.28763 22.108C1.14699 19.9924 0.5 17.5719 0.5 14.9996C0.5 12.5123 1.10492 10.1667 2.17719 8.10132H2.17801L5.57597 8.72428L7.06449 12.1018C6.75294 13.0101 6.58314 13.9851 6.58314 14.9996C6.58326 16.1007 6.78271 17.1557 7.14863 18.129Z" fill="#FBBB00"/>
<path d="M30.2382 12.1979C30.4105 13.1053 30.5003 14.0423 30.5003 15C30.5003 16.0739 30.3874 17.1215 30.1723 18.1319C29.4421 21.5703 27.5341 24.5728 24.891 26.6975L24.8902 26.6966L20.6103 26.4783L20.0045 22.697C21.7584 21.6684 23.129 20.0588 23.851 18.1319H15.8301V12.1979H23.968H30.2382Z" fill="#518EF8"/>
<path d="M24.8898 26.6967L24.8906 26.6975C22.32 28.7637 19.0546 30 15.4999 30C9.78759 30 4.82113 26.8072 2.2876 22.1086L7.14859 18.1295C8.41533 21.5102 11.6766 23.9168 15.4999 23.9168C17.1433 23.9168 18.6829 23.4726 20.004 22.697L24.8898 26.6967Z" fill="#28B446"/>
<path d="M25.0745 3.45325L20.2151 7.43149C18.8479 6.57685 17.2316 6.08315 15.5 6.08315C11.5901 6.08315 8.26788 8.60013 7.0646 12.1021L2.17807 8.10156H2.17725C4.67369 3.28843 9.70279 0 15.5 0C19.1396 0 22.4767 1.29643 25.0745 3.45325Z" fill="#F14336"/>
</svg>
