<svg width="18" height="20" viewBox="0 0 18 20" fill="none" xmlns="http://www.w3.org/2000/svg">
<path d="M8.88752 1.66852C9.17627 0.953524 9.98064 0.183524 11.0133 0.470899C11.8245 0.696399 12.3511 1.1859 12.6536 1.8404C12.9341 2.44952 13.0029 3.16727 13.0166 3.85065C13.0304 4.58627 12.8764 5.46765 12.6963 6.2404C12.6158 6.58186 12.5264 6.92115 12.4281 7.2579H14.3325C14.7598 7.25793 15.1812 7.35751 15.5633 7.54876C15.9453 7.74001 16.2776 8.01766 16.5337 8.35969C16.7898 8.70171 16.9626 9.09871 17.0386 9.51918C17.1145 9.93965 17.0914 10.372 16.9711 10.782L15.0956 17.1703C14.967 17.6087 14.7522 18.017 14.4639 18.3714C14.1756 18.7258 13.8195 19.0192 13.4165 19.2344C13.0135 19.4496 12.5716 19.5823 12.1167 19.6248C11.6618 19.6672 11.203 19.6186 10.7671 19.4816L2.81277 17.1703C2.41436 17.0451 2.04968 16.8309 1.7464 16.5438C1.44312 16.2567 1.2092 15.9043 1.06239 15.5134L0.919067 14.1249C0.900008 13.2659 0.702995 12.3369 0.918269 11.7268C1.13354 11.1167 1.55703 10.602 2.11427 10.2733L4.68827 8.75527C4.94765 8.55013 5.1883 8.32236 5.40739 8.07465C5.88039 7.53977 6.53077 6.65015 7.1839 5.26277C7.46577 4.66327 7.70227 4.19165 7.91677 3.76402C8.26465 3.0724 8.55614 2.49352 8.88752 1.66852ZM5.42802 9.9144C5.42032 9.91913 5.41252 9.92371 5.40464 9.92815L2.81277 11.4571C2.53415 11.6215 2.32241 11.8789 2.21477 12.1839C2.10713 12.489 2.22427 13.2214 2.21477 13.7054C2.20527 14.1894 2.3494 15.0294 2.3494 15.0294C2.42278 15.2251 2.5398 15.4014 2.69157 15.5451C2.84334 15.6888 3.02587 15.796 3.22527 15.8585L11.1769 18.1699C11.4385 18.2523 11.7139 18.2817 11.9869 18.2564C12.26 18.2312 12.5253 18.1516 12.7673 18.0226C13.0093 17.8935 13.2231 17.7175 13.3962 17.5048C13.5694 17.2921 13.6984 17.047 13.7756 16.7839L15.6498 10.3956C15.7101 10.1906 15.7217 9.97423 15.6837 9.76385C15.6458 9.55347 15.5593 9.35484 15.4312 9.18372C15.3031 9.01261 15.1368 8.87373 14.9456 8.77811C14.7544 8.6825 14.5435 8.63277 14.3298 8.6329H11.489C11.379 8.63284 11.2707 8.60638 11.173 8.55576C11.0753 8.50513 10.9913 8.43182 10.9278 8.34197C10.8644 8.25212 10.8234 8.14836 10.8084 8.03939C10.7933 7.93043 10.8047 7.81945 10.8414 7.71577C10.9789 7.32802 11.1879 6.65565 11.3584 5.92552C11.5316 5.18577 11.654 4.43777 11.643 3.87677C11.6293 3.23327 11.5619 2.75477 11.4051 2.41652C11.2704 2.1209 11.06 1.91052 10.6461 1.79502C10.587 1.77852 10.5169 1.78402 10.4261 1.84315C10.3077 1.92774 10.2168 2.0454 10.1649 2.1814C9.84817 2.95336 9.49719 3.71082 9.11302 4.45152C8.8999 4.8764 8.67577 5.32327 8.42965 5.84715C7.72289 7.3514 6.99965 8.3524 6.43589 8.98627C6.15539 9.30252 5.91614 9.52665 5.74014 9.67653C5.65076 9.7525 5.55808 9.82453 5.46239 9.8924L5.44039 9.90615L5.43352 9.91165L5.42802 9.9144Z" fill="white"/>
</svg>
