<svg width="18" height="20" viewBox="0 0 18 20" fill="none" xmlns="http://www.w3.org/2000/svg">
<path d="M11.0649 0.437995C10.0313 0.150365 9.2262 0.921049 8.93719 1.63668C8.60684 2.45913 8.31608 3.03719 7.96972 3.72579L7.96557 3.73405C7.75087 4.16205 7.51416 4.6341 7.23203 5.23413C6.57832 6.62274 5.92736 7.51315 5.45393 8.04851C5.23464 8.29644 4.99377 8.52441 4.73416 8.72974L2.15784 10.2491C1.6001 10.5781 1.17623 11.0932 0.960762 11.7039C0.745294 12.3146 0.942485 13.2443 0.961561 14.1042L1.10502 15.4939C1.25196 15.8852 1.48608 16.2379 1.78964 16.5252C2.09319 16.8125 2.4582 17.027 2.85697 17.1522L10.8185 19.4656C11.2548 19.6027 11.714 19.6514 12.1693 19.6089C12.6246 19.5664 13.0669 19.4336 13.4702 19.2182C13.8736 19.0028 14.23 18.7091 14.5186 18.3544C14.8072 17.9997 15.0221 17.591 15.1509 17.1522L17.0281 10.7583C17.1485 10.3479 17.1716 9.91516 17.0956 9.49432C17.0196 9.07347 16.8466 8.67613 16.5903 8.3338C16.3339 7.99147 16.0014 7.71357 15.6189 7.52215C15.2365 7.33073 14.8148 7.23106 14.3871 7.23103L12.481 7.23103C12.5794 6.89398 12.6689 6.55439 12.7494 6.21263C12.9297 5.43919 13.0838 4.55703 13.07 3.82075C13.0563 3.13677 12.9875 2.41838 12.7067 1.80871C12.4039 1.15363 11.8768 0.663696 11.0649 0.437995Z" fill="white"/>
</svg>
