<svg width="18" height="20" viewBox="0 0 18 20" fill="none" xmlns="http://www.w3.org/2000/svg">
<path d="M6.93514 19.562C7.9687 19.8496 8.7738 19.079 9.06281 18.3633C9.39316 17.5409 9.68392 16.9628 10.0303 16.2742L10.0344 16.266C10.2491 15.8379 10.4858 15.3659 10.768 14.7659C11.4217 13.3773 12.0726 12.4868 12.5461 11.9515C12.7654 11.7036 13.0062 11.4756 13.2658 11.2703L15.8422 9.75091C16.3999 9.42189 16.8238 8.90675 17.0392 8.2961C17.2547 7.68545 17.0575 6.75567 17.0384 5.89583L16.895 4.50613C16.748 4.11483 16.5139 3.76214 16.2104 3.4748C15.9068 3.18747 15.5418 2.97304 15.143 2.84778L7.18149 0.534353C6.74522 0.397316 6.28602 0.348618 5.83071 0.391109C5.3754 0.433601 4.93314 0.566427 4.52976 0.781824C4.12638 0.997221 3.76999 1.29086 3.48142 1.64559C3.19285 2.00032 2.97788 2.40902 2.84909 2.84778L0.971903 9.24171C0.851517 9.65207 0.828407 10.0848 0.904409 10.5057C0.980412 10.9265 1.15343 11.3239 1.40975 11.6662C1.66607 12.0085 1.99863 12.2864 2.38105 12.4778C2.76348 12.6693 3.18525 12.7689 3.6129 12.769H5.519C5.42061 13.106 5.33113 13.4456 5.25063 13.7874C5.07034 14.5608 4.9162 15.443 4.92997 16.1793C4.94373 16.8632 5.01254 17.5816 5.29329 18.1913C5.59606 18.8464 6.12316 19.3363 6.93514 19.562Z" fill="white"/>
</svg>
