<svg width="17" height="20" viewBox="0 0 17 20" fill="none" xmlns="http://www.w3.org/2000/svg">
<path d="M8.73192 18.3633C8.44291 19.079 7.63784 19.8496 6.60431 19.562C5.79236 19.3363 5.26528 18.8464 4.96251 18.1913C4.68177 17.5816 4.61296 16.8632 4.5992 16.1793C4.58543 15.443 4.73957 14.5608 4.91985 13.7874C5.00035 13.4456 5.08983 13.106 5.18821 12.769H3.28217C2.85453 12.7689 2.43277 12.6693 2.05036 12.4778C1.66794 12.2864 1.33539 12.0085 1.07909 11.6662C0.822776 11.3239 0.649761 10.9265 0.573761 10.5057C0.497761 10.0848 0.520868 9.65207 0.641251 9.24171L2.51838 2.84778C2.64717 2.40902 2.86213 2.00032 3.15069 1.64559C3.43926 1.29086 3.79564 0.997221 4.199 0.781824C4.60237 0.566427 5.04462 0.433601 5.49991 0.391109C5.95521 0.348619 6.4144 0.397316 6.85065 0.534353L14.812 2.84778C15.2107 2.97304 15.5757 3.18747 15.8793 3.4748C16.1828 3.76214 16.4169 4.11483 16.5639 4.50613L16.7073 5.89583C16.7264 6.75567 16.9236 7.68545 16.7081 8.2961C16.4926 8.90675 16.0688 9.42189 15.5111 9.75091L12.9348 11.2703C12.6752 11.4756 12.4344 11.7036 12.2151 11.9515C11.7417 12.4868 11.0907 13.3773 10.437 14.7659C10.1549 15.3659 9.9182 15.8379 9.70351 16.266C9.35533 16.9582 9.06358 17.5376 8.73192 18.3633ZM12.1944 10.1101C12.2021 10.1054 12.2099 10.1008 12.2178 10.0963L14.812 8.56599C15.0908 8.40147 15.3027 8.14391 15.4105 7.83858C15.5182 7.53325 15.401 6.80017 15.4105 6.31574C15.42 5.83131 15.2757 4.99056 15.2757 4.99056C15.2023 4.79471 15.0852 4.61818 14.9333 4.47438C14.7814 4.33059 14.5987 4.22331 14.3991 4.1607L6.44055 1.84727C6.17874 1.76478 5.90312 1.73533 5.6298 1.76064C5.35648 1.78596 5.09095 1.86554 4.84875 1.99471C4.60655 2.12388 4.39255 2.30007 4.21926 2.51295C4.04597 2.72583 3.91688 2.97113 3.83953 3.2345L1.96378 9.62843C1.90344 9.83371 1.8918 10.0502 1.92977 10.2608C1.96775 10.4714 2.0543 10.6702 2.18254 10.8414C2.31079 11.0127 2.4772 11.1517 2.66857 11.2474C2.85993 11.3431 3.07097 11.3929 3.28493 11.3927H6.12815C6.23824 11.3928 6.34671 11.4193 6.44445 11.47C6.54218 11.5206 6.62634 11.594 6.68984 11.6839C6.75334 11.7739 6.79434 11.8777 6.80939 11.9868C6.82444 12.0958 6.81311 12.2069 6.77634 12.3107C6.63872 12.6988 6.42954 13.3718 6.25889 14.1025C6.08549 14.8429 5.96301 15.5916 5.97402 16.1531C5.98778 16.7972 6.05521 17.2761 6.2121 17.6147C6.34697 17.9105 6.55752 18.1211 6.97176 18.2367C7.03094 18.2532 7.10112 18.2477 7.19195 18.1885C7.31052 18.1039 7.40148 17.9861 7.45343 17.85C7.77043 17.0773 8.12171 16.3192 8.50622 15.5778C8.71953 15.1526 8.94385 14.7053 9.19019 14.181C9.89756 12.6754 10.6214 11.6735 11.1857 11.0391C11.4664 10.7225 11.7059 10.4982 11.882 10.3482C11.9715 10.2721 12.0643 10.2001 12.16 10.1321L12.182 10.1184L12.1889 10.1129L12.1944 10.1101Z" fill="white"/>
</svg>
