<svg width="17" height="20" viewBox="0 0 17 20" fill="none" xmlns="http://www.w3.org/2000/svg">
<path d="M8.71857 1.66852C9.00732 0.953524 9.8117 0.183524 10.8443 0.470899C11.6556 0.696399 12.1822 1.1859 12.4847 1.8404C12.7652 2.44952 12.8339 3.16727 12.8477 3.85065C12.8614 4.58627 12.7074 5.46765 12.5273 6.2404C12.4469 6.58186 12.3575 6.92115 12.2592 7.2579H14.1636C14.5908 7.25793 15.0122 7.35751 15.3943 7.54876C15.7764 7.74001 16.1087 8.01766 16.3647 8.35969C16.6208 8.70171 16.7937 9.09871 16.8696 9.51918C16.9456 9.93965 16.9225 10.372 16.8022 10.782L14.9267 17.1703C14.798 17.6087 14.5833 18.017 14.2949 18.3714C14.0066 18.7258 13.6506 19.0192 13.2475 19.2344C12.8445 19.4496 12.4027 19.5823 11.9478 19.6248C11.4929 19.6672 11.0341 19.6186 10.5982 19.4816L2.64382 17.1703C2.24541 17.0451 1.88073 16.8309 1.57745 16.5438C1.27417 16.2567 1.04026 15.9043 0.893449 15.5134L0.750122 14.1249C0.731063 13.2659 0.53405 12.3369 0.749324 11.7268C0.964598 11.1167 1.38809 10.602 1.94532 10.2733L4.51932 8.75527C4.7787 8.55013 5.01936 8.32236 5.23845 8.07465C5.71145 7.53977 6.36182 6.65015 7.01495 5.26277C7.29682 4.66327 7.53332 4.19165 7.74782 3.76402C8.0957 3.0724 8.3872 2.49352 8.71857 1.66852ZM5.25907 9.9144C5.25137 9.91913 5.24358 9.92371 5.2357 9.92815L2.64383 11.4571C2.36521 11.6215 2.15346 11.8789 2.04582 12.1839C1.93819 12.489 2.05532 13.2214 2.04582 13.7054C2.03632 14.1894 2.18045 15.0294 2.18045 15.0294C2.25384 15.2251 2.37086 15.4014 2.52263 15.5451C2.6744 15.6888 2.85692 15.796 3.05632 15.8585L11.0079 18.1699C11.2695 18.2523 11.5449 18.2817 11.818 18.2564C12.0911 18.2312 12.3564 18.1516 12.5984 18.0226C12.8403 17.8935 13.0542 17.7175 13.2273 17.5048C13.4004 17.2921 13.5294 17.047 13.6067 16.7839L15.4808 10.3956C15.5411 10.1906 15.5527 9.97423 15.5148 9.76385C15.4769 9.55347 15.3904 9.35484 15.2622 9.18372C15.1341 9.01261 14.9678 8.87373 14.7766 8.77811C14.5855 8.68249 14.3746 8.63277 14.1608 8.6329H11.3201C11.2101 8.63284 11.1017 8.60638 11.0041 8.55576C10.9064 8.50513 10.8223 8.43182 10.7589 8.34197C10.6954 8.25212 10.6545 8.14835 10.6394 8.03939C10.6244 7.93043 10.6357 7.81945 10.6725 7.71577C10.81 7.32802 11.0189 6.65565 11.1894 5.92552C11.3627 5.18577 11.4851 4.43777 11.4741 3.87677C11.4603 3.23327 11.3929 2.75477 11.2362 2.41652C11.1014 2.1209 10.8911 1.91052 10.4772 1.79502C10.4181 1.77852 10.348 1.78402 10.2572 1.84315C10.1387 1.92774 10.0479 2.0454 9.99595 2.1814C9.67922 2.95336 9.32825 3.71082 8.94408 4.45152C8.73095 4.8764 8.50682 5.32327 8.2607 5.84715C7.55395 7.3514 6.8307 8.3524 6.26695 8.98627C5.98645 9.30252 5.7472 9.52665 5.5712 9.67652C5.48181 9.7525 5.38914 9.82453 5.29345 9.8924L5.27145 9.90615L5.26457 9.91165L5.25907 9.9144Z" fill="white"/>
</svg>
