<svg width="20" height="20" viewBox="0 0 20 20" fill="none" xmlns="http://www.w3.org/2000/svg">
<path d="M18.3906 1.60737C18.07 1.28358 17.6703 1.0493 17.2311 0.927759C16.7919 0.806216 16.3286 0.801692 15.8871 0.914562L3.55944 3.9962C2.77641 4.19235 2.08198 4.64581 1.58758 5.28392C1.09318 5.92202 0.827458 6.70776 0.833096 7.51496C0.838734 8.32216 1.11542 9.10408 1.61868 9.73521C2.12195 10.3664 2.82263 10.8101 3.60833 10.9953L7.97608 12.0228L9.00363 16.3906C9.17973 17.1807 9.62071 17.8869 10.2534 18.3919C10.8861 18.8968 11.6725 19.1702 12.4821 19.1667H12.5093C13.3143 19.176 14.0985 18.9111 14.733 18.4156C15.3675 17.9202 15.8147 17.2236 16.0009 16.4404L19.0826 4.1128C19.1955 3.6711 19.1911 3.2075 19.0697 2.76804C18.9483 2.32859 18.7142 1.92849 18.3906 1.60737ZM17.7156 3.76967L14.634 16.0973C14.5197 16.5764 14.2451 17.0023 13.8558 17.3042C13.4666 17.6061 12.9859 17.766 12.4933 17.7575C11.9992 17.7635 11.5183 17.5983 11.1323 17.2898C10.7463 16.9813 10.4791 16.5486 10.3762 16.0654L9.34206 11.6562L13.3206 7.67769C13.3861 7.6122 13.4381 7.53443 13.4735 7.44886C13.509 7.36329 13.5272 7.27157 13.5272 7.17894C13.5272 7.08632 13.509 6.9946 13.4735 6.90903C13.4381 6.82346 13.3861 6.74569 13.3206 6.6802C13.2551 6.6147 13.1773 6.56278 13.0918 6.52734C13.0062 6.49189 12.9145 6.47363 12.8219 6.47363C12.7292 6.47363 12.6375 6.49189 12.5519 6.52734C12.4664 6.56278 12.3887 6.6147 12.3232 6.6802L8.34463 10.6588L3.93551 9.62459C3.45724 9.51223 3.03063 9.24236 2.72422 8.85834C2.41781 8.47431 2.24938 7.99854 2.24602 7.50727C2.24265 7.016 2.40456 6.53785 2.70569 6.14967C3.00681 5.76148 3.42968 5.48578 3.90636 5.36689L16.2331 2.28514C16.3317 2.26022 16.4331 2.24767 16.5348 2.24761C16.721 2.24761 16.9046 2.29013 17.0718 2.37189C17.239 2.45366 17.3853 2.57248 17.4996 2.71939C17.6138 2.86629 17.693 3.03734 17.7311 3.21951C17.7692 3.40168 17.7652 3.5902 17.7194 3.77058L17.7156 3.76967Z" fill="white"/>
</svg>
