<svg width="14" height="16" viewBox="0 0 14 16" fill="none" xmlns="http://www.w3.org/2000/svg">
<path d="M13.5194 3.494C11.0666 2.67984 8.07816 1.13282 7.43648 0.484333C7.32586 0.372592 7.17539 0.309058 7.01793 0.307617C6.86162 0.312052 6.71213 0.372512 6.59696 0.477977C4.81535 1.93832 2.7394 2.99924 0.5101 3.58867C0.385694 3.62373 0.276207 3.69839 0.198228 3.80121C0.120249 3.90402 0.0780773 4.0294 0.078125 4.1583C0.078125 10.6519 1.09008 14.0315 6.8391 15.6693C6.9456 15.6999 7.05857 15.6999 7.16508 15.6693C12.9489 14.0213 13.9245 10.7552 13.9245 4.05574C13.9248 3.93154 13.8857 3.81046 13.813 3.70962C13.7403 3.60879 13.6375 3.5333 13.5194 3.494ZM7.00209 14.4844C2.2508 13.0825 1.30527 10.6188 1.2665 4.60091C3.34629 3.98074 5.29698 2.99189 7.02503 1.68186C8.81027 2.83773 10.7278 3.77643 12.7369 4.47783C12.6989 10.5888 11.7589 13.0801 7.00209 14.4844Z" fill="white"/>
</svg>
