<svg width="19" height="20" viewBox="0 0 19 20" fill="none" xmlns="http://www.w3.org/2000/svg">
<path d="M13.1529 7.67812L10.831 10L13.1529 12.3219C13.2203 12.387 13.274 12.4648 13.311 12.5508C13.348 12.6368 13.3675 12.7292 13.3683 12.8228C13.3692 12.9165 13.3514 13.0093 13.316 13.096C13.2806 13.1826 13.2283 13.2614 13.1621 13.3276C13.096 13.3939 13.0172 13.4463 12.9306 13.4818C12.844 13.5173 12.7512 13.5351 12.6575 13.5343C12.5639 13.5335 12.4714 13.5142 12.3854 13.4773C12.2993 13.4404 12.2215 13.3867 12.1564 13.3194L9.83451 10.9974L7.51259 13.3194C7.37956 13.4478 7.20138 13.5187 7.01651 13.517C6.83165 13.5153 6.65488 13.4411 6.52422 13.3103C6.39356 13.1795 6.31947 13.0027 6.31796 12.8178C6.31644 12.6329 6.38758 12.4549 6.51608 12.3219L8.83805 10L6.51608 7.67812C6.38381 7.54586 6.30952 7.36645 6.30952 7.1794C6.30952 6.99235 6.38381 6.81295 6.51608 6.68069C6.64834 6.54842 6.82774 6.47413 7.01479 6.47413C7.20184 6.47413 7.38125 6.54842 7.51351 6.68069L9.83543 9.00266L12.1574 6.68069C12.222 6.61148 12.2999 6.55602 12.3864 6.51756C12.4729 6.47911 12.5663 6.45844 12.661 6.45686C12.7557 6.45528 12.8497 6.47278 12.9374 6.50833C13.0252 6.54387 13.1049 6.59675 13.1718 6.66376C13.2386 6.73077 13.2914 6.81055 13.3267 6.89837C13.3621 6.9862 13.3794 7.08026 13.3777 7.17493C13.3759 7.26959 13.3551 7.36291 13.3165 7.44936C13.2778 7.53581 13.2223 7.61364 13.1529 7.67812ZM19.0001 7.17986V12.8202C18.9981 14.5025 18.3289 16.1153 17.1393 17.3049C15.9498 18.4944 14.337 19.1636 12.6547 19.1656H7.01433C5.33204 19.1636 3.71923 18.4944 2.52967 17.3049C1.34011 16.1153 0.670936 14.5025 0.668945 12.8202V7.17986C0.670936 5.49757 1.34011 3.88475 2.52967 2.69519C3.71923 1.50563 5.33204 0.836463 7.01433 0.834473H12.6547C14.337 0.836463 15.9498 1.50563 17.1393 2.69519C18.3289 3.88475 18.9981 5.49757 19.0001 7.17986ZM17.59 7.17986C17.5885 5.8714 17.0681 4.61694 16.1428 3.69171C15.2176 2.76649 13.9631 2.24605 12.6547 2.24456H7.01433C5.70587 2.24605 4.45141 2.76649 3.52618 3.69171C2.60096 4.61694 2.08052 5.8714 2.07903 7.17986V12.8202C2.08052 14.1287 2.60096 15.3831 3.52618 16.3084C4.45141 17.2336 5.70587 17.754 7.01433 17.7555H12.6547C13.9631 17.754 15.2176 17.2336 16.1428 16.3084C17.0681 15.3831 17.5885 14.1287 17.59 12.8202V7.17986Z" fill="#AA73F0"/>
</svg>
