<svg width="132" height="98" viewBox="0 0 132 98" fill="none" xmlns="http://www.w3.org/2000/svg">
<path d="M6.70434 47H5.71434L3.46434 50.69L1.22434 47H0.154336L2.93434 51.56V54H3.92434V51.58L6.70434 47ZM10.5762 54.08C12.7062 54.08 14.2862 52.56 14.2862 50.5C14.2862 48.44 12.7062 46.92 10.5762 46.92C8.42621 46.92 6.84621 48.45 6.84621 50.5C6.84621 52.55 8.42621 54.08 10.5762 54.08ZM10.5762 53.19C9.00621 53.19 7.84621 52.05 7.84621 50.5C7.84621 48.95 9.00621 47.81 10.5762 47.81C12.1262 47.81 13.2862 48.95 13.2862 50.5C13.2862 52.05 12.1262 53.19 10.5762 53.19ZM18.7146 54.08C20.5646 54.08 21.6746 53.01 21.6746 50.98V47H20.7046V50.94C20.7046 52.49 19.9846 53.19 18.7246 53.19C17.4646 53.19 16.7546 52.49 16.7546 50.94V47H15.7546V50.98C15.7546 53.01 16.8746 54.08 18.7146 54.08ZM29.4948 54L27.8348 51.65C28.8148 51.3 29.3748 50.52 29.3748 49.44C29.3748 47.92 28.2748 47 26.4548 47H23.7248V54H24.7248V51.87H26.4548C26.6048 51.87 26.7548 51.86 26.8948 51.85L28.4048 54H29.4948ZM26.4248 51.02H24.7248V47.87H26.4248C27.7048 47.87 28.3748 48.44 28.3748 49.44C28.3748 50.44 27.7048 51.02 26.4248 51.02ZM35.716 54.08C37.566 54.08 38.426 53.16 38.426 52.09C38.426 49.52 34.186 50.59 34.186 48.88C34.186 48.27 34.696 47.77 35.886 47.77C36.506 47.77 37.196 47.95 37.806 48.34L38.136 47.54C37.556 47.14 36.706 46.92 35.886 46.92C34.046 46.92 33.206 47.84 33.206 48.92C33.206 51.52 37.446 50.44 37.446 52.15C37.446 52.76 36.926 53.23 35.716 53.23C34.816 53.23 33.926 52.89 33.406 52.42L33.036 53.2C33.596 53.72 34.646 54.08 35.716 54.08ZM41.1793 54H42.1693V47.87H44.5693V47H38.7793V47.87H41.1793V54ZM48.7207 54.08C50.8507 54.08 52.4307 52.56 52.4307 50.5C52.4307 48.44 50.8507 46.92 48.7207 46.92C46.5707 46.92 44.9907 48.45 44.9907 50.5C44.9907 52.55 46.5707 54.08 48.7207 54.08ZM48.7207 53.19C47.1507 53.19 45.9907 52.05 45.9907 50.5C45.9907 48.95 47.1507 47.81 48.7207 47.81C50.2707 47.81 51.4307 48.95 51.4307 50.5C51.4307 52.05 50.2707 53.19 48.7207 53.19ZM59.7292 54L58.0692 51.65C59.0492 51.3 59.6092 50.52 59.6092 49.44C59.6092 47.92 58.5092 47 56.6892 47H53.9592V54H54.9592V51.87H56.6892C56.8392 51.87 56.9892 51.86 57.1292 51.85L58.6392 54H59.7292ZM56.6592 51.02H54.9592V47.87H56.6592C57.9392 47.87 58.6092 48.44 58.6092 49.44C58.6092 50.44 57.9392 51.02 56.6592 51.02ZM66.5871 47H65.5971L63.3471 50.69L61.1071 47H60.0371L62.8171 51.56V54H63.8071V51.58L66.5871 47ZM67.3307 52.69C66.9507 52.69 66.6607 52.97 66.6607 53.37C66.6607 53.67 66.8307 53.9 67.0807 53.99L66.7107 55.48H67.3407L67.8107 54.09C67.9407 53.72 67.9807 53.57 67.9807 53.37C67.9807 52.98 67.7107 52.69 67.3307 52.69ZM77.2018 47V52.22L73.0018 47H72.1818V54H73.1818V48.78L77.3818 54H78.2018V47H77.2018ZM83.4571 54.08C85.5871 54.08 87.1671 52.56 87.1671 50.5C87.1671 48.44 85.5871 46.92 83.4571 46.92C81.3071 46.92 79.7271 48.45 79.7271 50.5C79.7271 52.55 81.3071 54.08 83.4571 54.08ZM83.4571 53.19C81.8871 53.19 80.7271 52.05 80.7271 50.5C80.7271 48.95 81.8871 47.81 83.4571 47.81C85.0071 47.81 86.1671 48.95 86.1671 50.5C86.1671 52.05 85.0071 53.19 83.4571 53.19ZM97.4109 47L95.4809 52.72L93.5509 47H92.6309L90.6609 52.69L88.7709 47H87.7409L90.0809 54H91.1509L93.0609 48.41L94.9709 54H96.0209L98.3609 47H97.4109ZM103.806 54H104.796V47.87H107.196V47H101.406V47.87H103.806V54ZM111.348 54.08C113.478 54.08 115.058 52.56 115.058 50.5C115.058 48.44 113.478 46.92 111.348 46.92C109.198 46.92 107.618 48.45 107.618 50.5C107.618 52.55 109.198 54.08 111.348 54.08ZM111.348 53.19C109.778 53.19 108.618 52.05 108.618 50.5C108.618 48.95 109.778 47.81 111.348 47.81C112.898 47.81 114.058 48.95 114.058 50.5C114.058 52.05 112.898 53.19 111.348 53.19ZM116.586 54H121.376V53.13H117.586V47H116.586V54ZM122.524 54H125.474C127.724 54 129.254 52.58 129.254 50.5C129.254 48.42 127.724 47 125.474 47H122.524V54ZM123.524 53.13V47.87H125.414C127.144 47.87 128.254 48.93 128.254 50.5C128.254 52.07 127.144 53.13 125.414 53.13H123.524ZM130.68 54.06C131.04 54.06 131.34 53.77 131.34 53.37C131.34 52.97 131.04 52.69 130.68 52.69C130.31 52.69 130 52.97 130 53.37C130 53.77 130.31 54.06 130.68 54.06Z" fill="white"/>
<path fill-rule="evenodd" clip-rule="evenodd" d="M86.3684 61H112.523C107.171 82.2608 87.9254 98 65.0034 98C42.0814 98 22.8355 82.2608 17.4835 61H43.6384C47.8378 68.4607 55.8321 73.5 65.0034 73.5C74.1747 73.5 82.1689 68.4607 86.3684 61ZM87.7975 40H113.179C108.953 17.2367 88.991 0 65.0034 0C41.0158 0 21.054 17.2367 16.8281 40H42.2093C45.7966 30.9221 54.65 24.5 65.0034 24.5C75.3568 24.5 84.2102 30.9221 87.7975 40Z" fill="#D9D9D9"/>
</svg>
