<svg width="27" height="22" viewBox="0 0 27 22" fill="none" xmlns="http://www.w3.org/2000/svg">
<path d="M10.1469 2.63668C10.436 1.92105 11.2411 1.15036 12.2746 1.438C13.0866 1.6637 13.6137 2.15363 13.9164 2.80871C14.1972 3.41838 14.266 4.13677 14.2798 4.82075C14.2935 5.55703 14.1394 6.43919 13.9591 7.21263C13.8786 7.55439 13.7891 7.89398 13.6907 8.23103H15.5968C16.0245 8.23106 16.4462 8.33073 16.8287 8.52215C17.2111 8.71357 17.5437 8.99147 17.8 9.3338C18.0563 9.67613 18.2293 10.0735 18.3053 10.4943C18.3813 10.9152 18.3582 11.3479 18.2378 11.7583L16.3606 18.1522C16.2318 18.591 16.0169 18.9997 15.7283 19.3544C15.4397 19.7091 15.0834 20.0028 14.68 20.2182C14.2766 20.4336 13.8343 20.5664 13.379 20.6089C12.9237 20.6514 12.4645 20.6027 12.0283 20.4656L4.06675 18.1522C3.66798 18.027 3.30298 17.8125 2.99943 17.5252C2.69587 17.2379 2.46175 16.8852 2.31481 16.4939L2.17135 15.1042C2.15228 14.2443 1.95509 13.3146 2.17056 12.7039C2.38602 12.0932 2.80989 11.5781 3.36763 11.2491L5.94393 9.72974C6.20355 9.52441 6.44442 9.29644 6.6637 9.04851C7.13713 8.51315 7.78809 7.62274 8.4418 6.23413C8.72392 5.6341 8.96064 5.16205 9.17533 4.73405C9.52352 4.04181 9.81528 3.46242 10.1469 2.63668ZM6.68435 10.8899C6.67664 10.8946 6.66884 10.8992 6.66095 10.9037L4.06675 12.434C3.78789 12.5985 3.57595 12.8561 3.46822 13.1614C3.36049 13.4667 3.47773 14.1998 3.46822 14.6843C3.45871 15.1687 3.60296 16.0094 3.60296 16.0094C3.67642 16.2053 3.79354 16.3818 3.94545 16.5256C4.09736 16.6694 4.28004 16.7767 4.47962 16.8393L12.4384 19.1527C12.7002 19.2352 12.9758 19.2647 13.2491 19.2394C13.5225 19.214 13.788 19.1345 14.0302 19.0053C14.2724 18.8761 14.4864 18.6999 14.6597 18.4871C14.833 18.2742 14.9621 18.0289 15.0395 17.7655L16.9153 11.3716C16.9756 11.1663 16.9872 10.9498 16.9493 10.7392C16.9113 10.5286 16.8247 10.3298 16.6965 10.1586C16.5682 9.9873 16.4018 9.8483 16.2104 9.75259C16.0191 9.65689 15.808 9.60713 15.5941 9.60725H12.7508C12.6407 9.60719 12.5322 9.58071 12.4345 9.53004C12.3367 9.47937 12.2526 9.40599 12.1891 9.31606C12.1256 9.22613 12.0846 9.12228 12.0695 9.01322C12.0545 8.90416 12.0658 8.79308 12.1026 8.68931C12.2402 8.30122 12.4494 7.62824 12.62 6.89747C12.7934 6.15706 12.9159 5.4084 12.9049 4.8469C12.8912 4.20283 12.8237 3.7239 12.6668 3.38535C12.532 3.08946 12.3214 2.8789 11.9071 2.7633C11.848 2.74678 11.7778 2.75229 11.687 2.81147C11.5684 2.89613 11.4774 3.0139 11.4255 3.15002C11.1085 3.92266 10.7572 4.68079 10.3727 5.42216C10.1593 5.84741 9.93501 6.29468 9.68866 6.81903C8.98128 8.32461 8.25738 9.3265 7.69313 9.96094C7.41237 10.2775 7.17291 10.5018 6.99675 10.6518C6.90728 10.7279 6.81453 10.7999 6.71875 10.8679L6.69673 10.8816L6.68985 10.8871L6.68435 10.8899Z" fill="white"/>
<path d="M19.1552 1.43358C18.1955 1.16651 17.448 1.88209 17.1797 2.54656C16.8729 3.31021 16.603 3.84694 16.2814 4.4863L16.2775 4.49396C16.0782 4.89136 15.8584 5.32965 15.5964 5.88679L16.7541 6.42986C16.9829 5.94301 17.1912 5.52772 17.3892 5.13287C17.7463 4.44451 18.0724 3.74059 18.3668 3.02319C18.415 2.8968 18.4995 2.78746 18.6096 2.70884C18.6939 2.6539 18.7591 2.64879 18.814 2.66412C19.1986 2.77146 19.3941 2.96696 19.5194 3.2417C19.665 3.55604 19.7277 4.00072 19.7404 4.59874C19.7507 5.12009 19.6369 5.81523 19.4759 6.50269C19.3175 7.18122 19.1232 7.80607 18.9955 8.16642C18.9613 8.26277 18.9508 8.3659 18.9648 8.46716C18.9787 8.56842 19.0168 8.66485 19.0758 8.74835C19.1347 8.83186 19.2129 8.89999 19.3036 8.94704C19.3944 8.99408 19.4951 9.01866 19.5973 9.01872H22.2373C22.436 9.01861 22.6319 9.06481 22.8096 9.15367C22.9873 9.24253 23.1418 9.3716 23.2609 9.53062C23.38 9.68964 23.4603 9.87423 23.4956 10.0697C23.5309 10.2653 23.5201 10.4663 23.464 10.6569L21.7224 16.5936C21.6505 16.8382 21.5307 17.066 21.3698 17.2636C21.2089 17.4613 21.0102 17.6249 20.7853 17.7448C20.5604 17.8647 20.3138 17.9386 20.0601 17.9621C19.8063 17.9856 19.2736 17.8909 19.3073 17.8817L18.5854 17.2028L18.1521 18.6268L18.9265 19.1007C19.3315 19.228 19.7579 19.2732 20.1807 19.2337C20.6034 19.1943 21.014 19.0709 21.3886 18.871C21.7631 18.671 22.094 18.3983 22.362 18.0689C22.6299 17.7396 22.8295 17.3601 22.9491 16.9527L24.692 11.016C24.8038 10.6349 24.8253 10.2331 24.7547 9.84236C24.6841 9.45161 24.5235 9.08267 24.2855 8.76482C24.0475 8.44697 23.7387 8.18894 23.3836 8.01121C23.0286 7.83348 22.637 7.74093 22.2399 7.7409H20.4701C20.5614 7.42795 20.6445 7.11264 20.7193 6.79532C20.8867 6.07718 21.0298 5.2581 21.017 4.57446C21.0042 3.93939 20.9403 3.27236 20.6796 2.70629C20.3985 2.09805 19.9091 1.64314 19.1552 1.43358Z" fill="white"/>
</svg>
