<svg width="24" height="24" viewBox="0 0 24 24" fill="none" xmlns="http://www.w3.org/2000/svg">
<path d="M10.8822 2.438C9.84868 2.15036 9.04359 2.92105 8.75457 3.63668C8.42422 4.45913 8.13346 5.03719 7.78711 5.72579L7.78295 5.73405C7.56826 6.16205 7.33154 6.6341 7.04942 7.23413C6.3957 8.62274 5.74474 9.51315 5.27131 10.0485C5.05203 10.2964 4.81116 10.5244 4.55154 10.7297L1.97522 12.2491C1.41749 12.5781 0.993613 13.0932 0.778145 13.7039C0.562677 14.3146 0.759868 15.2443 0.778944 16.1042L0.9224 17.4939C1.06934 17.8852 1.30346 18.2379 1.60702 18.5252C1.91057 18.8125 2.27558 19.027 2.67435 19.1522L10.6359 21.4656C11.0722 21.6027 11.5314 21.6514 11.9867 21.6089C12.442 21.5664 12.8842 21.4336 13.2876 21.2182C13.691 21.0028 14.0474 20.7091 14.336 20.3544C14.6245 19.9997 14.8395 19.591 14.9683 19.1522L16.8455 12.7583C16.9659 12.3479 16.989 11.9152 16.913 11.4943C16.837 11.0735 16.6639 10.6761 16.4076 10.3338C16.1513 9.99147 15.8188 9.71357 15.4363 9.52215C15.0539 9.33073 14.6321 9.23106 14.2045 9.23103H12.2984C12.3968 8.89398 12.4863 8.55439 12.5668 8.21263C12.747 7.43919 12.9012 6.55703 12.8874 5.82075C12.8737 5.13677 12.8048 4.41838 12.5241 3.80871C12.2213 3.15363 11.6942 2.6637 10.8822 2.438Z" fill="white"/>
<path d="M17.6818 3.12157C16.7222 2.8545 15.9746 3.57008 15.7063 4.23455L14.6782 7.37622C16.6782 7.37622 18.6787 9.36002 18.6787 11.876L17.1121 18.8908L16.6787 20.3148L17.4531 20.7887C17.8581 20.916 18.2845 20.9612 18.7073 20.9217C19.13 20.8823 19.5407 20.7589 19.9152 20.5589C20.2897 20.3589 20.6206 20.0863 20.8886 19.7569C21.1565 19.4276 21.3561 19.0481 21.4757 18.6407L23.2186 12.7039C23.3304 12.3229 23.3519 11.9211 23.2813 11.5304C23.2107 11.1396 23.0501 10.7707 22.8121 10.4528C22.5741 10.135 22.2653 9.87693 21.9103 9.6992C21.5552 9.52146 21.1636 9.42892 20.7665 9.42889H18.9967C19.088 9.11594 19.1711 8.80063 19.2459 8.4833C19.4133 7.76517 19.5564 6.94608 19.5436 6.26245C19.5308 5.62737 19.4669 4.96035 19.2063 4.39428C18.9251 3.78603 18.4357 3.33113 17.6818 3.12157Z" fill="white"/>
</svg>
