<svg width="20" height="20" viewBox="0 0 20 20" fill="none" xmlns="http://www.w3.org/2000/svg">
<path d="M17.4231 4.31004H14.6854C14.4836 4.31022 14.2869 4.24682 14.1231 4.12891C13.9594 4.01099 13.8369 3.84455 13.7731 3.65311L13.53 2.92313C13.4413 2.65451 13.2702 2.42067 13.0409 2.25494C12.8116 2.08921 12.536 1.99998 12.2531 2H8.74613C8.46322 1.99986 8.18749 2.0891 7.95821 2.25485C7.72893 2.42059 7.55781 2.65444 7.46923 2.92313L7.22617 3.65236C7.16248 3.84394 7.04006 4.01056 6.8763 4.12862C6.71253 4.24668 6.51572 4.31016 6.31383 4.31004H3.57692C3.42391 4.31004 3.27717 4.37087 3.16897 4.47906C3.06078 4.58725 3 4.73395 3 4.88696C3 5.03997 3.06078 5.18667 3.16897 5.29487C3.27717 5.40306 3.42391 5.46389 3.57692 5.46389H4.57691L5.16694 14.31C5.21732 15.0396 5.5423 15.723 6.07641 16.2226C6.61051 16.7222 7.31408 17.0008 8.0454 17.0023H12.9584C13.6897 17.0006 14.3932 16.7219 14.9273 16.2224C15.4613 15.7229 15.7863 15.0396 15.8369 14.31L16.4269 5.46389H17.4231C17.5761 5.46389 17.7228 5.40306 17.831 5.29487C17.9392 5.18667 18 5.03997 18 4.88696C18 4.73395 17.9392 4.58725 17.831 4.47906C17.7228 4.37087 17.5761 4.31004 17.4231 4.31004ZM8.56382 3.28775C8.57657 3.24947 8.60106 3.21614 8.63378 3.19253C8.6665 3.16893 8.70579 3.15622 8.74613 3.15619H12.2531C12.2933 3.15617 12.3326 3.16879 12.3653 3.19225C12.398 3.21571 12.4225 3.24886 12.4354 3.287L12.6784 4.01698C12.7123 4.1174 12.7537 4.21512 12.8023 4.30929H8.19616C8.24477 4.21486 8.28618 4.1169 8.32001 4.01623L8.56382 3.28775ZM14.6831 14.2331C14.6529 14.6709 14.458 15.0809 14.1375 15.3807C13.8171 15.6804 13.3949 15.8476 12.9561 15.8485H8.0431C7.60431 15.8476 7.18214 15.6804 6.86169 15.3807C6.54125 15.0809 6.34629 14.6709 6.31613 14.2331L5.73156 5.46389H6.31383C6.39542 5.46216 6.47685 5.45572 6.55769 5.44464C6.58888 5.45375 6.62081 5.46021 6.6531 5.46389H14.3454C14.3777 5.46025 14.4096 5.45379 14.4408 5.44464C14.5216 5.45571 14.603 5.46215 14.6846 5.46389H15.2669L14.6831 14.2331ZM12.6154 8.73312V12.5793C12.6154 12.7323 12.5546 12.879 12.4464 12.9872C12.3382 13.0954 12.1915 13.1562 12.0385 13.1562C11.8855 13.1562 11.7387 13.0954 11.6305 12.9872C11.5223 12.879 11.4615 12.7323 11.4615 12.5793V8.73312C11.4615 8.58011 11.5223 8.43341 11.6305 8.32521C11.7387 8.21702 11.8855 8.15619 12.0385 8.15619C12.1915 8.15619 12.3382 8.21702 12.4464 8.32521C12.5546 8.43341 12.6154 8.58011 12.6154 8.73312ZM9.53846 8.73312V12.5793C9.53846 12.7323 9.47768 12.879 9.36949 12.9872C9.26129 13.0954 9.11455 13.1562 8.96154 13.1562C8.80853 13.1562 8.66178 13.0954 8.55359 12.9872C8.44539 12.879 8.38462 12.7323 8.38462 12.5793V8.73312C8.38462 8.58011 8.44539 8.43341 8.55359 8.32521C8.66178 8.21702 8.80853 8.15619 8.96154 8.15619C9.11455 8.15619 9.26129 8.21702 9.36949 8.32521C9.47768 8.43341 9.53846 8.58011 9.53846 8.73312Z" fill="white"/>
</svg>
